<svg xmlns="http://www.w3.org/2000/svg" width="720" height="150" viewBox="0 0 720 150" role="img" aria-label="lodestone downloads over time">
  <defs>
    <linearGradient id="g" x1="0" y1="1" x2="0" y2="0">
      <stop offset="0" stop-color="#7c6cba"/>
      <stop offset="1" stop-color="#4ad6f0"/>
    </linearGradient>
  </defs>
  <text x="10" y="18" font-family="ui-sans-serif,system-ui,sans-serif" font-size="12" font-weight="600" fill="#1f2328" text-anchor="start">downloads</text>
  <text x="110" y="18" font-family="ui-sans-serif,system-ui,sans-serif" font-size="11" font-weight="400" fill="#59636e" text-anchor="start">▮ npm / day (0 on 09-21)</text>
  <text x="320" y="18" font-family="ui-sans-serif,system-ui,sans-serif" font-size="11" font-weight="400" fill="#59636e" text-anchor="start">— extension total (1838)</text>
  <text x="710" y="18" font-family="ui-sans-serif,system-ui,sans-serif" font-size="11" font-weight="400" fill="#59636e" text-anchor="end">updates daily · 2026-09-21</text>
  <rect x="12.2" y="100.1" width="5.4" height="25.9" rx="3" fill="url(#g)" opacity="0.9"/><rect x="22.1" y="39.6" width="5.4" height="86.4" rx="3" fill="url(#g)" opacity="0.9"/><rect x="31.9" y="122.0" width="5.4" height="4.0" rx="3" fill="url(#g)" opacity="0.9"/><rect x="41.8" y="124.0" width="5.4" height="2.0" rx="3" fill="url(#g)" opacity="0.9"/><rect x="51.7" y="124.0" width="5.4" height="2.0" rx="3" fill="url(#g)" opacity="0.9"/><rect x="61.5" y="124.0" width="5.4" height="2.0" rx="3" fill="url(#g)" opacity="0.9"/><rect x="71.4" y="124.0" width="5.4" height="2.0" rx="3" fill="url(#g)" opacity="0.9"/><rect x="81.2" y="124.0" width="5.4" height="2.0" rx="3" fill="url(#g)" opacity="0.9"/><rect x="91.1" y="124.0" width="5.4" height="2.0" rx="3" fill="url(#g)" opacity="0.9"/><rect x="101.0" y="124.0" width="5.4" height="2.0" rx="3" fill="url(#g)" opacity="0.9"/><rect x="110.8" y="124.0" width="5.4" height="2.0" rx="3" fill="url(#g)" opacity="0.9"/><rect x="120.7" y="124.0" width="5.4" height="2.0" rx="3" fill="url(#g)" opacity="0.9"/><rect x="130.5" y="124.0" width="5.4" height="2.0" rx="3" fill="url(#g)" opacity="0.9"/><rect x="140.4" y="124.0" width="5.4" height="2.0" rx="3" fill="url(#g)" opacity="0.9"/><rect x="150.2" y="124.0" width="5.4" height="2.0" rx="3" fill="url(#g)" opacity="0.9"/><rect x="160.1" y="124.0" width="5.4" height="2.0" rx="3" fill="url(#g)" opacity="0.9"/><rect x="170.0" y="124.0" width="5.4" height="2.0" rx="3" fill="url(#g)" opacity="0.9"/><rect x="179.8" y="124.0" width="5.4" height="2.0" rx="3" fill="url(#g)" opacity="0.9"/><rect x="189.7" y="124.0" width="5.4" height="2.0" rx="3" fill="url(#g)" opacity="0.9"/><rect x="199.5" y="124.0" width="5.4" height="2.0" rx="3" fill="url(#g)" opacity="0.9"/><rect x="209.4" y="124.0" width="5.4" height="2.0" rx="3" fill="url(#g)" opacity="0.9"/><rect x="219.3" y="124.0" width="5.4" height="2.0" rx="3" fill="url(#g)" opacity="0.9"/><rect x="229.1" y="124.0" width="5.4" height="2.0" rx="3" fill="url(#g)" opacity="0.9"/><rect x="239.0" y="124.0" width="5.4" height="2.0" rx="3" fill="url(#g)" opacity="0.9"/><rect x="248.8" y="124.0" width="5.4" height="2.0" rx="3" fill="url(#g)" opacity="0.9"/><rect x="258.7" y="124.0" width="5.4" height="2.0" rx="3" fill="url(#g)" opacity="0.9"/><rect x="268.6" y="124.0" width="5.4" height="2.0" rx="3" fill="url(#g)" opacity="0.9"/><rect x="278.4" y="124.0" width="5.4" height="2.0" rx="3" fill="url(#g)" opacity="0.9"/><rect x="288.3" y="124.0" width="5.4" height="2.0" rx="3" fill="url(#g)" opacity="0.9"/><rect x="298.1" y="124.0" width="5.4" height="2.0" rx="3" fill="url(#g)" opacity="0.9"/><rect x="308.0" y="124.0" width="5.4" height="2.0" rx="3" fill="url(#g)" opacity="0.9"/><rect x="317.9" y="124.0" width="5.4" height="2.0" rx="3" fill="url(#g)" opacity="0.9"/><rect x="327.7" y="124.0" width="5.4" height="2.0" rx="3" fill="url(#g)" opacity="0.9"/><rect x="337.6" y="124.0" width="5.4" height="2.0" rx="3" fill="url(#g)" opacity="0.9"/><rect x="347.4" y="124.0" width="5.4" height="2.0" rx="3" fill="url(#g)" opacity="0.9"/><rect x="357.3" y="124.0" width="5.4" height="2.0" rx="3" fill="url(#g)" opacity="0.9"/><rect x="367.1" y="124.0" width="5.4" height="2.0" rx="3" fill="url(#g)" opacity="0.9"/><rect x="377.0" y="124.0" width="5.4" height="2.0" rx="3" fill="url(#g)" opacity="0.9"/><rect x="386.9" y="124.0" width="5.4" height="2.0" rx="3" fill="url(#g)" opacity="0.9"/><rect x="396.7" y="124.0" width="5.4" height="2.0" rx="3" fill="url(#g)" opacity="0.9"/><rect x="406.6" y="124.0" width="5.4" height="2.0" rx="3" fill="url(#g)" opacity="0.9"/><rect x="416.4" y="124.0" width="5.4" height="2.0" rx="3" fill="url(#g)" opacity="0.9"/><rect x="426.3" y="124.0" width="5.4" height="2.0" rx="3" fill="url(#g)" opacity="0.9"/><rect x="436.2" y="124.0" width="5.4" height="2.0" rx="3" fill="url(#g)" opacity="0.9"/><rect x="446.0" y="124.0" width="5.4" height="2.0" rx="3" fill="url(#g)" opacity="0.9"/><rect x="455.9" y="124.0" width="5.4" height="2.0" rx="3" fill="url(#g)" opacity="0.9"/><rect x="465.7" y="124.0" width="5.4" height="2.0" rx="3" fill="url(#g)" opacity="0.9"/><rect x="475.6" y="124.0" width="5.4" height="2.0" rx="3" fill="url(#g)" opacity="0.9"/><rect x="485.5" y="124.0" width="5.4" height="2.0" rx="3" fill="url(#g)" opacity="0.9"/><rect x="495.3" y="124.0" width="5.4" height="2.0" rx="3" fill="url(#g)" opacity="0.9"/><rect x="505.2" y="124.0" width="5.4" height="2.0" rx="3" fill="url(#g)" opacity="0.9"/><rect x="515.0" y="124.0" width="5.4" height="2.0" rx="3" fill="url(#g)" opacity="0.9"/><rect x="524.9" y="124.0" width="5.4" height="2.0" rx="3" fill="url(#g)" opacity="0.9"/><rect x="534.8" y="124.0" width="5.4" height="2.0" rx="3" fill="url(#g)" opacity="0.9"/><rect x="544.6" y="124.0" width="5.4" height="2.0" rx="3" fill="url(#g)" opacity="0.9"/><rect x="554.5" y="124.0" width="5.4" height="2.0" rx="3" fill="url(#g)" opacity="0.9"/><rect x="564.3" y="124.0" width="5.4" height="2.0" rx="3" fill="url(#g)" opacity="0.9"/><rect x="574.2" y="124.0" width="5.4" height="2.0" rx="3" fill="url(#g)" opacity="0.9"/><rect x="584.0" y="124.0" width="5.4" height="2.0" rx="3" fill="url(#g)" opacity="0.9"/><rect x="593.9" y="124.0" width="5.4" height="2.0" rx="3" fill="url(#g)" opacity="0.9"/><rect x="603.8" y="124.0" width="5.4" height="2.0" rx="3" fill="url(#g)" opacity="0.9"/><rect x="613.6" y="124.0" width="5.4" height="2.0" rx="3" fill="url(#g)" opacity="0.9"/><rect x="623.5" y="124.0" width="5.4" height="2.0" rx="3" fill="url(#g)" opacity="0.9"/><rect x="633.3" y="124.0" width="5.4" height="2.0" rx="3" fill="url(#g)" opacity="0.9"/><rect x="643.2" y="124.0" width="5.4" height="2.0" rx="3" fill="url(#g)" opacity="0.9"/><rect x="653.1" y="124.0" width="5.4" height="2.0" rx="3" fill="url(#g)" opacity="0.9"/><rect x="662.9" y="124.0" width="5.4" height="2.0" rx="3" fill="url(#g)" opacity="0.9"/><rect x="672.8" y="124.0" width="5.4" height="2.0" rx="3" fill="url(#g)" opacity="0.9"/><rect x="682.6" y="124.0" width="5.4" height="2.0" rx="3" fill="url(#g)" opacity="0.9"/><rect x="692.5" y="124.0" width="5.4" height="2.0" rx="3" fill="url(#g)" opacity="0.9"/><rect x="702.4" y="124.0" width="5.4" height="2.0" rx="3" fill="url(#g)" opacity="0.9"/>
  <polyline points="24.8,87.3 34.6,72.3 44.5,72.0 54.4,71.9 64.2,71.8 74.1,71.7 83.9,71.3 93.8,70.6 103.7,70.4 113.5,69.9 123.4,69.1 133.2,68.7 143.1,68.0 153.0,67.2 162.8,65.6 172.7,64.6 182.5,63.9 192.4,62.6 202.3,61.7 212.1,60.6 222.0,60.0 231.8,59.2 241.7,58.4 251.5,57.6 261.4,56.7 271.3,55.9 281.1,55.7 291.0,55.0 300.8,54.9 310.7,54.2 320.6,53.8 330.4,53.5 340.3,52.8 350.1,52.5 360.0,52.3 369.9,51.6 379.7,50.9 389.6,50.5 399.4,50.3 409.3,50.0 419.2,49.2 429.0,49.0 438.9,48.8 448.7,48.2 458.6,47.8 468.5,47.5 478.3,47.2 488.2,47.0 498.0,46.7 507.9,46.7 517.7,46.5 527.6,46.2 537.5,46.0 547.3,45.7 557.2,45.4 567.0,45.2 576.9,45.1 586.8,44.8 596.6,44.6 606.5,44.3 616.3,44.0 626.2,43.1 636.1,42.9 645.9,42.6 655.8,42.3 665.6,42.0 675.5,41.8 685.4,41.4 695.2,40.5 705.1,39.6" fill="none" stroke="#4ad6f0" stroke-width="2.5" stroke-linecap="round" stroke-linejoin="round"/>
</svg>
