<svg xmlns="http://www.w3.org/2000/svg" width="720" height="150" viewBox="0 0 720 150" role="img" aria-label="lodestone downloads over time">
  <defs>
    <linearGradient id="g" x1="0" y1="1" x2="0" y2="0">
      <stop offset="0" stop-color="#7c6cba"/>
      <stop offset="1" stop-color="#4ad6f0"/>
    </linearGradient>
  </defs>
  <text x="10" y="18" font-family="ui-sans-serif,system-ui,sans-serif" font-size="12" font-weight="600" fill="#e6e6e6" text-anchor="start">downloads</text>
  <text x="110" y="18" font-family="ui-sans-serif,system-ui,sans-serif" font-size="11" font-weight="400" fill="#9198a1" text-anchor="start">▮ npm / day (0 on 07-23)</text>
  <text x="320" y="18" font-family="ui-sans-serif,system-ui,sans-serif" font-size="11" font-weight="400" fill="#9198a1" text-anchor="start">— extension total (1192)</text>
  <text x="710" y="18" font-family="ui-sans-serif,system-ui,sans-serif" font-size="11" font-weight="400" fill="#9198a1" text-anchor="end">updates daily · 2026-07-23</text>
  <rect x="28.8" y="100.1" width="26.0" height="25.9" rx="3" fill="url(#g)" opacity="0.9"/><rect x="92.5" y="39.6" width="26.0" height="86.4" rx="3" fill="url(#g)" opacity="0.9"/><rect x="156.1" y="122.0" width="26.0" height="4.0" rx="3" fill="url(#g)" opacity="0.9"/><rect x="219.7" y="124.0" width="26.0" height="2.0" rx="3" fill="url(#g)" opacity="0.9"/><rect x="283.4" y="124.0" width="26.0" height="2.0" rx="3" fill="url(#g)" opacity="0.9"/><rect x="347.0" y="124.0" width="26.0" height="2.0" rx="3" fill="url(#g)" opacity="0.9"/><rect x="410.6" y="124.0" width="26.0" height="2.0" rx="3" fill="url(#g)" opacity="0.9"/><rect x="474.3" y="124.0" width="26.0" height="2.0" rx="3" fill="url(#g)" opacity="0.9"/><rect x="537.9" y="124.0" width="26.0" height="2.0" rx="3" fill="url(#g)" opacity="0.9"/><rect x="601.5" y="124.0" width="26.0" height="2.0" rx="3" fill="url(#g)" opacity="0.9"/><rect x="665.2" y="124.0" width="26.0" height="2.0" rx="3" fill="url(#g)" opacity="0.9"/>
  <polyline points="105.5,66.3 169.1,43.2 232.7,42.8 296.4,42.6 360.0,42.5 423.6,42.2 487.3,41.6 550.9,40.6 614.5,40.3 678.2,39.6" fill="none" stroke="#4ad6f0" stroke-width="2.5" stroke-linecap="round" stroke-linejoin="round"/>
</svg>
