<svg xmlns="http://www.w3.org/2000/svg" width="720" height="150" viewBox="0 0 720 150" role="img" aria-label="lodestone downloads over time">
  <defs>
    <linearGradient id="g" x1="0" y1="1" x2="0" y2="0">
      <stop offset="0" stop-color="#7c6cba"/>
      <stop offset="1" stop-color="#4ad6f0"/>
    </linearGradient>
  </defs>
  <text x="10" y="18" font-family="ui-sans-serif,system-ui,sans-serif" font-size="12" font-weight="600" fill="#1f2328" text-anchor="start">downloads</text>
  <text x="110" y="18" font-family="ui-sans-serif,system-ui,sans-serif" font-size="11" font-weight="400" fill="#59636e" text-anchor="start">▮ npm / day (0 on 07-26)</text>
  <text x="320" y="18" font-family="ui-sans-serif,system-ui,sans-serif" font-size="11" font-weight="400" fill="#59636e" text-anchor="start">— extension total (1232)</text>
  <text x="710" y="18" font-family="ui-sans-serif,system-ui,sans-serif" font-size="11" font-weight="400" fill="#59636e" text-anchor="end">updates daily · 2026-07-26</text>
  <rect x="22.0" y="100.1" width="26.0" height="25.9" rx="3" fill="url(#g)" opacity="0.9"/><rect x="72.0" y="39.6" width="26.0" height="86.4" rx="3" fill="url(#g)" opacity="0.9"/><rect x="122.0" y="122.0" width="26.0" height="4.0" rx="3" fill="url(#g)" opacity="0.9"/><rect x="172.0" y="124.0" width="26.0" height="2.0" rx="3" fill="url(#g)" opacity="0.9"/><rect x="222.0" y="124.0" width="26.0" height="2.0" rx="3" fill="url(#g)" opacity="0.9"/><rect x="272.0" y="124.0" width="26.0" height="2.0" rx="3" fill="url(#g)" opacity="0.9"/><rect x="322.0" y="124.0" width="26.0" height="2.0" rx="3" fill="url(#g)" opacity="0.9"/><rect x="372.0" y="124.0" width="26.0" height="2.0" rx="3" fill="url(#g)" opacity="0.9"/><rect x="422.0" y="124.0" width="26.0" height="2.0" rx="3" fill="url(#g)" opacity="0.9"/><rect x="472.0" y="124.0" width="26.0" height="2.0" rx="3" fill="url(#g)" opacity="0.9"/><rect x="522.0" y="124.0" width="26.0" height="2.0" rx="3" fill="url(#g)" opacity="0.9"/><rect x="572.0" y="124.0" width="26.0" height="2.0" rx="3" fill="url(#g)" opacity="0.9"/><rect x="622.0" y="124.0" width="26.0" height="2.0" rx="3" fill="url(#g)" opacity="0.9"/><rect x="672.0" y="124.0" width="26.0" height="2.0" rx="3" fill="url(#g)" opacity="0.9"/>
  <polyline points="85.0,68.2 135.0,45.9 185.0,45.5 235.0,45.4 285.0,45.2 335.0,44.9 385.0,44.4 435.0,43.4 485.0,43.1 535.0,42.3 585.0,41.1 635.0,40.4 685.0,39.6" fill="none" stroke="#4ad6f0" stroke-width="2.5" stroke-linecap="round" stroke-linejoin="round"/>
</svg>
