<svg xmlns="http://www.w3.org/2000/svg" width="720" height="150" viewBox="0 0 720 150" role="img" aria-label="lodestone downloads over time">
  <defs>
    <linearGradient id="g" x1="0" y1="1" x2="0" y2="0">
      <stop offset="0" stop-color="#7c6cba"/>
      <stop offset="1" stop-color="#4ad6f0"/>
    </linearGradient>
  </defs>
  <text x="10" y="18" font-family="ui-sans-serif,system-ui,sans-serif" font-size="12" font-weight="600" fill="#1f2328" text-anchor="start">downloads</text>
  <text x="110" y="18" font-family="ui-sans-serif,system-ui,sans-serif" font-size="11" font-weight="400" fill="#59636e" text-anchor="start">▮ npm / day (0 on 08-05)</text>
  <text x="320" y="18" font-family="ui-sans-serif,system-ui,sans-serif" font-size="11" font-weight="400" fill="#59636e" text-anchor="start">— extension total (1430)</text>
  <text x="710" y="18" font-family="ui-sans-serif,system-ui,sans-serif" font-size="11" font-weight="400" fill="#59636e" text-anchor="end">updates daily · 2026-08-05</text>
  <rect x="16.6" y="100.1" width="16.0" height="25.9" rx="3" fill="url(#g)" opacity="0.9"/><rect x="45.7" y="39.6" width="16.0" height="86.4" rx="3" fill="url(#g)" opacity="0.9"/><rect x="74.9" y="122.0" width="16.0" height="4.0" rx="3" fill="url(#g)" opacity="0.9"/><rect x="104.1" y="124.0" width="16.0" height="2.0" rx="3" fill="url(#g)" opacity="0.9"/><rect x="133.2" y="124.0" width="16.0" height="2.0" rx="3" fill="url(#g)" opacity="0.9"/><rect x="162.4" y="124.0" width="16.0" height="2.0" rx="3" fill="url(#g)" opacity="0.9"/><rect x="191.6" y="124.0" width="16.0" height="2.0" rx="3" fill="url(#g)" opacity="0.9"/><rect x="220.7" y="124.0" width="16.0" height="2.0" rx="3" fill="url(#g)" opacity="0.9"/><rect x="249.9" y="124.0" width="16.0" height="2.0" rx="3" fill="url(#g)" opacity="0.9"/><rect x="279.1" y="124.0" width="16.0" height="2.0" rx="3" fill="url(#g)" opacity="0.9"/><rect x="308.2" y="124.0" width="16.0" height="2.0" rx="3" fill="url(#g)" opacity="0.9"/><rect x="337.4" y="124.0" width="16.0" height="2.0" rx="3" fill="url(#g)" opacity="0.9"/><rect x="366.6" y="124.0" width="16.0" height="2.0" rx="3" fill="url(#g)" opacity="0.9"/><rect x="395.7" y="124.0" width="16.0" height="2.0" rx="3" fill="url(#g)" opacity="0.9"/><rect x="424.9" y="124.0" width="16.0" height="2.0" rx="3" fill="url(#g)" opacity="0.9"/><rect x="454.1" y="124.0" width="16.0" height="2.0" rx="3" fill="url(#g)" opacity="0.9"/><rect x="483.2" y="124.0" width="16.0" height="2.0" rx="3" fill="url(#g)" opacity="0.9"/><rect x="512.4" y="124.0" width="16.0" height="2.0" rx="3" fill="url(#g)" opacity="0.9"/><rect x="541.6" y="124.0" width="16.0" height="2.0" rx="3" fill="url(#g)" opacity="0.9"/><rect x="570.7" y="124.0" width="16.0" height="2.0" rx="3" fill="url(#g)" opacity="0.9"/><rect x="599.9" y="124.0" width="16.0" height="2.0" rx="3" fill="url(#g)" opacity="0.9"/><rect x="629.1" y="124.0" width="16.0" height="2.0" rx="3" fill="url(#g)" opacity="0.9"/><rect x="658.2" y="124.0" width="16.0" height="2.0" rx="3" fill="url(#g)" opacity="0.9"/><rect x="687.4" y="124.0" width="16.0" height="2.0" rx="3" fill="url(#g)" opacity="0.9"/>
  <polyline points="53.8,76.2 82.9,57.0 112.1,56.6 141.3,56.5 170.4,56.4 199.6,56.2 228.8,55.7 257.9,54.8 287.1,54.6 316.3,53.9 345.4,52.9 374.6,52.3 403.8,51.4 432.9,50.5 462.1,48.4 491.3,47.1 520.4,46.2 549.6,44.6 578.8,43.3 607.9,41.9 637.1,41.2 666.3,40.1 695.4,39.6" fill="none" stroke="#4ad6f0" stroke-width="2.5" stroke-linecap="round" stroke-linejoin="round"/>
</svg>
