<svg xmlns="http://www.w3.org/2000/svg" width="720" height="150" viewBox="0 0 720 150" role="img" aria-label="lodestone downloads over time">
  <defs>
    <linearGradient id="g" x1="0" y1="1" x2="0" y2="0">
      <stop offset="0" stop-color="#7c6cba"/>
      <stop offset="1" stop-color="#4ad6f0"/>
    </linearGradient>
  </defs>
  <text x="10" y="18" font-family="ui-sans-serif,system-ui,sans-serif" font-size="12" font-weight="600" fill="#1f2328" text-anchor="start">downloads</text>
  <text x="110" y="18" font-family="ui-sans-serif,system-ui,sans-serif" font-size="11" font-weight="400" fill="#59636e" text-anchor="start">▮ npm / day (0 on 07-30)</text>
  <text x="320" y="18" font-family="ui-sans-serif,system-ui,sans-serif" font-size="11" font-weight="400" fill="#59636e" text-anchor="start">— extension total (1312)</text>
  <text x="710" y="18" font-family="ui-sans-serif,system-ui,sans-serif" font-size="11" font-weight="400" fill="#59636e" text-anchor="end">updates daily · 2026-07-30</text>
  <rect x="18.8" y="100.1" width="21.4" height="25.9" rx="3" fill="url(#g)" opacity="0.9"/><rect x="57.6" y="39.6" width="21.4" height="86.4" rx="3" fill="url(#g)" opacity="0.9"/><rect x="96.5" y="122.0" width="21.4" height="4.0" rx="3" fill="url(#g)" opacity="0.9"/><rect x="135.4" y="124.0" width="21.4" height="2.0" rx="3" fill="url(#g)" opacity="0.9"/><rect x="174.3" y="124.0" width="21.4" height="2.0" rx="3" fill="url(#g)" opacity="0.9"/><rect x="213.2" y="124.0" width="21.4" height="2.0" rx="3" fill="url(#g)" opacity="0.9"/><rect x="252.1" y="124.0" width="21.4" height="2.0" rx="3" fill="url(#g)" opacity="0.9"/><rect x="291.0" y="124.0" width="21.4" height="2.0" rx="3" fill="url(#g)" opacity="0.9"/><rect x="329.9" y="124.0" width="21.4" height="2.0" rx="3" fill="url(#g)" opacity="0.9"/><rect x="368.8" y="124.0" width="21.4" height="2.0" rx="3" fill="url(#g)" opacity="0.9"/><rect x="407.6" y="124.0" width="21.4" height="2.0" rx="3" fill="url(#g)" opacity="0.9"/><rect x="446.5" y="124.0" width="21.4" height="2.0" rx="3" fill="url(#g)" opacity="0.9"/><rect x="485.4" y="124.0" width="21.4" height="2.0" rx="3" fill="url(#g)" opacity="0.9"/><rect x="524.3" y="124.0" width="21.4" height="2.0" rx="3" fill="url(#g)" opacity="0.9"/><rect x="563.2" y="124.0" width="21.4" height="2.0" rx="3" fill="url(#g)" opacity="0.9"/><rect x="602.1" y="124.0" width="21.4" height="2.0" rx="3" fill="url(#g)" opacity="0.9"/><rect x="641.0" y="124.0" width="21.4" height="2.0" rx="3" fill="url(#g)" opacity="0.9"/><rect x="679.9" y="124.0" width="21.4" height="2.0" rx="3" fill="url(#g)" opacity="0.9"/>
  <polyline points="68.3,71.7 107.2,50.8 146.1,50.4 185.0,50.3 223.9,50.1 262.8,49.9 301.7,49.3 340.6,48.4 379.4,48.2 418.3,47.4 457.2,46.3 496.1,45.7 535.0,44.7 573.9,43.7 612.8,41.4 651.7,40.0 690.6,39.6" fill="none" stroke="#4ad6f0" stroke-width="2.5" stroke-linecap="round" stroke-linejoin="round"/>
</svg>
