<svg xmlns="http://www.w3.org/2000/svg" width="720" height="150" viewBox="0 0 720 150" role="img" aria-label="lodestone downloads over time">
  <defs>
    <linearGradient id="g" x1="0" y1="1" x2="0" y2="0">
      <stop offset="0" stop-color="#7c6cba"/>
      <stop offset="1" stop-color="#4ad6f0"/>
    </linearGradient>
  </defs>
  <text x="10" y="18" font-family="ui-sans-serif,system-ui,sans-serif" font-size="12" font-weight="600" fill="#e6e6e6" text-anchor="start">downloads</text>
  <text x="110" y="18" font-family="ui-sans-serif,system-ui,sans-serif" font-size="11" font-weight="400" fill="#9198a1" text-anchor="start">▮ npm / day (0 on 08-03)</text>
  <text x="320" y="18" font-family="ui-sans-serif,system-ui,sans-serif" font-size="11" font-weight="400" fill="#9198a1" text-anchor="start">— extension total (1396)</text>
  <text x="710" y="18" font-family="ui-sans-serif,system-ui,sans-serif" font-size="11" font-weight="400" fill="#9198a1" text-anchor="end">updates daily · 2026-08-03</text>
  <rect x="17.2" y="100.1" width="17.5" height="25.9" rx="3" fill="url(#g)" opacity="0.9"/><rect x="49.0" y="39.6" width="17.5" height="86.4" rx="3" fill="url(#g)" opacity="0.9"/><rect x="80.8" y="122.0" width="17.5" height="4.0" rx="3" fill="url(#g)" opacity="0.9"/><rect x="112.6" y="124.0" width="17.5" height="2.0" rx="3" fill="url(#g)" opacity="0.9"/><rect x="144.4" y="124.0" width="17.5" height="2.0" rx="3" fill="url(#g)" opacity="0.9"/><rect x="176.3" y="124.0" width="17.5" height="2.0" rx="3" fill="url(#g)" opacity="0.9"/><rect x="208.1" y="124.0" width="17.5" height="2.0" rx="3" fill="url(#g)" opacity="0.9"/><rect x="239.9" y="124.0" width="17.5" height="2.0" rx="3" fill="url(#g)" opacity="0.9"/><rect x="271.7" y="124.0" width="17.5" height="2.0" rx="3" fill="url(#g)" opacity="0.9"/><rect x="303.5" y="124.0" width="17.5" height="2.0" rx="3" fill="url(#g)" opacity="0.9"/><rect x="335.3" y="124.0" width="17.5" height="2.0" rx="3" fill="url(#g)" opacity="0.9"/><rect x="367.2" y="124.0" width="17.5" height="2.0" rx="3" fill="url(#g)" opacity="0.9"/><rect x="399.0" y="124.0" width="17.5" height="2.0" rx="3" fill="url(#g)" opacity="0.9"/><rect x="430.8" y="124.0" width="17.5" height="2.0" rx="3" fill="url(#g)" opacity="0.9"/><rect x="462.6" y="124.0" width="17.5" height="2.0" rx="3" fill="url(#g)" opacity="0.9"/><rect x="494.4" y="124.0" width="17.5" height="2.0" rx="3" fill="url(#g)" opacity="0.9"/><rect x="526.3" y="124.0" width="17.5" height="2.0" rx="3" fill="url(#g)" opacity="0.9"/><rect x="558.1" y="124.0" width="17.5" height="2.0" rx="3" fill="url(#g)" opacity="0.9"/><rect x="589.9" y="124.0" width="17.5" height="2.0" rx="3" fill="url(#g)" opacity="0.9"/><rect x="621.7" y="124.0" width="17.5" height="2.0" rx="3" fill="url(#g)" opacity="0.9"/><rect x="653.5" y="124.0" width="17.5" height="2.0" rx="3" fill="url(#g)" opacity="0.9"/><rect x="685.3" y="124.0" width="17.5" height="2.0" rx="3" fill="url(#g)" opacity="0.9"/>
  <polyline points="57.7,75.0 89.5,55.3 121.4,54.9 153.2,54.8 185.0,54.7 216.8,54.5 248.6,54.0 280.5,53.1 312.3,52.8 344.1,52.1 375.9,51.1 407.7,50.5 439.5,49.6 471.4,48.6 503.2,46.5 535.0,45.2 566.8,44.3 598.6,42.6 630.5,41.3 662.3,39.8 694.1,39.6" fill="none" stroke="#4ad6f0" stroke-width="2.5" stroke-linecap="round" stroke-linejoin="round"/>
</svg>
