<svg xmlns="http://www.w3.org/2000/svg" width="720" height="150" viewBox="0 0 720 150" role="img" aria-label="lodestone downloads over time">
  <defs>
    <linearGradient id="g" x1="0" y1="1" x2="0" y2="0">
      <stop offset="0" stop-color="#7c6cba"/>
      <stop offset="1" stop-color="#4ad6f0"/>
    </linearGradient>
  </defs>
  <text x="10" y="18" font-family="ui-sans-serif,system-ui,sans-serif" font-size="12" font-weight="600" fill="#1f2328" text-anchor="start">downloads</text>
  <text x="110" y="18" font-family="ui-sans-serif,system-ui,sans-serif" font-size="11" font-weight="400" fill="#59636e" text-anchor="start">▮ npm / day (0 on 07-22)</text>
  <text x="320" y="18" font-family="ui-sans-serif,system-ui,sans-serif" font-size="11" font-weight="400" fill="#59636e" text-anchor="start">— extension total (1180)</text>
  <text x="710" y="18" font-family="ui-sans-serif,system-ui,sans-serif" font-size="11" font-weight="400" fill="#59636e" text-anchor="end">updates daily · 2026-07-22</text>
  <rect x="32.0" y="100.1" width="26.0" height="25.9" rx="3" fill="url(#g)" opacity="0.9"/><rect x="102.0" y="39.6" width="26.0" height="86.4" rx="3" fill="url(#g)" opacity="0.9"/><rect x="172.0" y="122.0" width="26.0" height="4.0" rx="3" fill="url(#g)" opacity="0.9"/><rect x="242.0" y="124.0" width="26.0" height="2.0" rx="3" fill="url(#g)" opacity="0.9"/><rect x="312.0" y="124.0" width="26.0" height="2.0" rx="3" fill="url(#g)" opacity="0.9"/><rect x="382.0" y="124.0" width="26.0" height="2.0" rx="3" fill="url(#g)" opacity="0.9"/><rect x="452.0" y="124.0" width="26.0" height="2.0" rx="3" fill="url(#g)" opacity="0.9"/><rect x="522.0" y="124.0" width="26.0" height="2.0" rx="3" fill="url(#g)" opacity="0.9"/><rect x="592.0" y="124.0" width="26.0" height="2.0" rx="3" fill="url(#g)" opacity="0.9"/><rect x="662.0" y="124.0" width="26.0" height="2.0" rx="3" fill="url(#g)" opacity="0.9"/>
  <polyline points="115.0,65.7 185.0,42.4 255.0,41.9 325.0,41.8 395.0,41.7 465.0,41.4 535.0,40.8 605.0,39.7 675.0,39.6" fill="none" stroke="#4ad6f0" stroke-width="2.5" stroke-linecap="round" stroke-linejoin="round"/>
</svg>
