<svg xmlns="http://www.w3.org/2000/svg" width="720" height="150" viewBox="0 0 720 150" role="img" aria-label="lodestone downloads over time">
  <defs>
    <linearGradient id="g" x1="0" y1="1" x2="0" y2="0">
      <stop offset="0" stop-color="#7c6cba"/>
      <stop offset="1" stop-color="#4ad6f0"/>
    </linearGradient>
  </defs>
  <text x="10" y="18" font-family="ui-sans-serif,system-ui,sans-serif" font-size="12" font-weight="600" fill="#1f2328" text-anchor="start">downloads</text>
  <text x="110" y="18" font-family="ui-sans-serif,system-ui,sans-serif" font-size="11" font-weight="400" fill="#59636e" text-anchor="start">▮ npm / day (0 on 09-07)</text>
  <text x="320" y="18" font-family="ui-sans-serif,system-ui,sans-serif" font-size="11" font-weight="400" fill="#59636e" text-anchor="start">— extension total (1714)</text>
  <text x="710" y="18" font-family="ui-sans-serif,system-ui,sans-serif" font-size="11" font-weight="400" fill="#59636e" text-anchor="end">updates daily · 2026-09-07</text>
  <rect x="12.8" y="100.1" width="6.8" height="25.9" rx="3" fill="url(#g)" opacity="0.9"/><rect x="25.0" y="39.6" width="6.8" height="86.4" rx="3" fill="url(#g)" opacity="0.9"/><rect x="37.3" y="122.0" width="6.8" height="4.0" rx="3" fill="url(#g)" opacity="0.9"/><rect x="49.6" y="124.0" width="6.8" height="2.0" rx="3" fill="url(#g)" opacity="0.9"/><rect x="61.9" y="124.0" width="6.8" height="2.0" rx="3" fill="url(#g)" opacity="0.9"/><rect x="74.2" y="124.0" width="6.8" height="2.0" rx="3" fill="url(#g)" opacity="0.9"/><rect x="86.4" y="124.0" width="6.8" height="2.0" rx="3" fill="url(#g)" opacity="0.9"/><rect x="98.7" y="124.0" width="6.8" height="2.0" rx="3" fill="url(#g)" opacity="0.9"/><rect x="111.0" y="124.0" width="6.8" height="2.0" rx="3" fill="url(#g)" opacity="0.9"/><rect x="123.3" y="124.0" width="6.8" height="2.0" rx="3" fill="url(#g)" opacity="0.9"/><rect x="135.6" y="124.0" width="6.8" height="2.0" rx="3" fill="url(#g)" opacity="0.9"/><rect x="147.9" y="124.0" width="6.8" height="2.0" rx="3" fill="url(#g)" opacity="0.9"/><rect x="160.1" y="124.0" width="6.8" height="2.0" rx="3" fill="url(#g)" opacity="0.9"/><rect x="172.4" y="124.0" width="6.8" height="2.0" rx="3" fill="url(#g)" opacity="0.9"/><rect x="184.7" y="124.0" width="6.8" height="2.0" rx="3" fill="url(#g)" opacity="0.9"/><rect x="197.0" y="124.0" width="6.8" height="2.0" rx="3" fill="url(#g)" opacity="0.9"/><rect x="209.3" y="124.0" width="6.8" height="2.0" rx="3" fill="url(#g)" opacity="0.9"/><rect x="221.5" y="124.0" width="6.8" height="2.0" rx="3" fill="url(#g)" opacity="0.9"/><rect x="233.8" y="124.0" width="6.8" height="2.0" rx="3" fill="url(#g)" opacity="0.9"/><rect x="246.1" y="124.0" width="6.8" height="2.0" rx="3" fill="url(#g)" opacity="0.9"/><rect x="258.4" y="124.0" width="6.8" height="2.0" rx="3" fill="url(#g)" opacity="0.9"/><rect x="270.7" y="124.0" width="6.8" height="2.0" rx="3" fill="url(#g)" opacity="0.9"/><rect x="282.9" y="124.0" width="6.8" height="2.0" rx="3" fill="url(#g)" opacity="0.9"/><rect x="295.2" y="124.0" width="6.8" height="2.0" rx="3" fill="url(#g)" opacity="0.9"/><rect x="307.5" y="124.0" width="6.8" height="2.0" rx="3" fill="url(#g)" opacity="0.9"/><rect x="319.8" y="124.0" width="6.8" height="2.0" rx="3" fill="url(#g)" opacity="0.9"/><rect x="332.1" y="124.0" width="6.8" height="2.0" rx="3" fill="url(#g)" opacity="0.9"/><rect x="344.3" y="124.0" width="6.8" height="2.0" rx="3" fill="url(#g)" opacity="0.9"/><rect x="356.6" y="124.0" width="6.8" height="2.0" rx="3" fill="url(#g)" opacity="0.9"/><rect x="368.9" y="124.0" width="6.8" height="2.0" rx="3" fill="url(#g)" opacity="0.9"/><rect x="381.2" y="124.0" width="6.8" height="2.0" rx="3" fill="url(#g)" opacity="0.9"/><rect x="393.5" y="124.0" width="6.8" height="2.0" rx="3" fill="url(#g)" opacity="0.9"/><rect x="405.7" y="124.0" width="6.8" height="2.0" rx="3" fill="url(#g)" opacity="0.9"/><rect x="418.0" y="124.0" width="6.8" height="2.0" rx="3" fill="url(#g)" opacity="0.9"/><rect x="430.3" y="124.0" width="6.8" height="2.0" rx="3" fill="url(#g)" opacity="0.9"/><rect x="442.6" y="124.0" width="6.8" height="2.0" rx="3" fill="url(#g)" opacity="0.9"/><rect x="454.9" y="124.0" width="6.8" height="2.0" rx="3" fill="url(#g)" opacity="0.9"/><rect x="467.1" y="124.0" width="6.8" height="2.0" rx="3" fill="url(#g)" opacity="0.9"/><rect x="479.4" y="124.0" width="6.8" height="2.0" rx="3" fill="url(#g)" opacity="0.9"/><rect x="491.7" y="124.0" width="6.8" height="2.0" rx="3" fill="url(#g)" opacity="0.9"/><rect x="504.0" y="124.0" width="6.8" height="2.0" rx="3" fill="url(#g)" opacity="0.9"/><rect x="516.3" y="124.0" width="6.8" height="2.0" rx="3" fill="url(#g)" opacity="0.9"/><rect x="528.6" y="124.0" width="6.8" height="2.0" rx="3" fill="url(#g)" opacity="0.9"/><rect x="540.8" y="124.0" width="6.8" height="2.0" rx="3" fill="url(#g)" opacity="0.9"/><rect x="553.1" y="124.0" width="6.8" height="2.0" rx="3" fill="url(#g)" opacity="0.9"/><rect x="565.4" y="124.0" width="6.8" height="2.0" rx="3" fill="url(#g)" opacity="0.9"/><rect x="577.7" y="124.0" width="6.8" height="2.0" rx="3" fill="url(#g)" opacity="0.9"/><rect x="590.0" y="124.0" width="6.8" height="2.0" rx="3" fill="url(#g)" opacity="0.9"/><rect x="602.2" y="124.0" width="6.8" height="2.0" rx="3" fill="url(#g)" opacity="0.9"/><rect x="614.5" y="124.0" width="6.8" height="2.0" rx="3" fill="url(#g)" opacity="0.9"/><rect x="626.8" y="124.0" width="6.8" height="2.0" rx="3" fill="url(#g)" opacity="0.9"/><rect x="639.1" y="124.0" width="6.8" height="2.0" rx="3" fill="url(#g)" opacity="0.9"/><rect x="651.4" y="124.0" width="6.8" height="2.0" rx="3" fill="url(#g)" opacity="0.9"/><rect x="663.6" y="124.0" width="6.8" height="2.0" rx="3" fill="url(#g)" opacity="0.9"/><rect x="675.9" y="124.0" width="6.8" height="2.0" rx="3" fill="url(#g)" opacity="0.9"/><rect x="688.2" y="124.0" width="6.8" height="2.0" rx="3" fill="url(#g)" opacity="0.9"/><rect x="700.5" y="124.0" width="6.8" height="2.0" rx="3" fill="url(#g)" opacity="0.9"/>
  <polyline points="28.4,84.5 40.7,68.4 53.0,68.1 65.3,68.0 77.5,67.9 89.8,67.7 102.1,67.3 114.4,66.6 126.7,66.4 138.9,65.8 151.2,65.0 163.5,64.5 175.8,63.8 188.1,63.0 200.4,61.3 212.6,60.2 224.9,59.5 237.2,58.0 249.5,57.0 261.8,55.8 274.0,55.2 286.3,54.3 298.6,53.5 310.9,52.6 323.2,51.7 335.4,50.8 347.7,50.6 360.0,49.9 372.3,49.8 384.6,49.0 396.8,48.6 409.1,48.3 421.4,47.5 433.7,47.2 446.0,47.0 458.2,46.3 470.5,45.4 482.8,45.0 495.1,44.8 507.4,44.5 519.6,43.6 531.9,43.4 544.2,43.2 556.5,42.6 568.8,42.1 581.1,41.8 593.3,41.5 605.6,41.3 617.9,40.9 630.2,40.9 642.5,40.7 654.7,40.4 667.0,40.2 679.3,39.9 691.6,39.6 703.9,39.6" fill="none" stroke="#4ad6f0" stroke-width="2.5" stroke-linecap="round" stroke-linejoin="round"/>
</svg>
