<svg xmlns="http://www.w3.org/2000/svg" width="720" height="150" viewBox="0 0 720 150" role="img" aria-label="lodestone downloads over time">
  <defs>
    <linearGradient id="g" x1="0" y1="1" x2="0" y2="0">
      <stop offset="0" stop-color="#7c6cba"/>
      <stop offset="1" stop-color="#4ad6f0"/>
    </linearGradient>
  </defs>
  <text x="10" y="18" font-family="ui-sans-serif,system-ui,sans-serif" font-size="12" font-weight="600" fill="#e6e6e6" text-anchor="start">downloads</text>
  <text x="110" y="18" font-family="ui-sans-serif,system-ui,sans-serif" font-size="11" font-weight="400" fill="#9198a1" text-anchor="start">▮ npm / day (0 on 09-28)</text>
  <text x="320" y="18" font-family="ui-sans-serif,system-ui,sans-serif" font-size="11" font-weight="400" fill="#9198a1" text-anchor="start">— extension total (1896)</text>
  <text x="710" y="18" font-family="ui-sans-serif,system-ui,sans-serif" font-size="11" font-weight="400" fill="#9198a1" text-anchor="end">updates daily · 2026-09-28</text>
  <rect x="12.0" y="100.1" width="4.9" height="25.9" rx="3" fill="url(#g)" opacity="0.9"/><rect x="21.0" y="39.6" width="4.9" height="86.4" rx="3" fill="url(#g)" opacity="0.9"/><rect x="30.0" y="122.0" width="4.9" height="4.0" rx="3" fill="url(#g)" opacity="0.9"/><rect x="38.9" y="124.0" width="4.9" height="2.0" rx="3" fill="url(#g)" opacity="0.9"/><rect x="47.9" y="124.0" width="4.9" height="2.0" rx="3" fill="url(#g)" opacity="0.9"/><rect x="56.9" y="124.0" width="4.9" height="2.0" rx="3" fill="url(#g)" opacity="0.9"/><rect x="65.9" y="124.0" width="4.9" height="2.0" rx="3" fill="url(#g)" opacity="0.9"/><rect x="74.8" y="124.0" width="4.9" height="2.0" rx="3" fill="url(#g)" opacity="0.9"/><rect x="83.8" y="124.0" width="4.9" height="2.0" rx="3" fill="url(#g)" opacity="0.9"/><rect x="92.8" y="124.0" width="4.9" height="2.0" rx="3" fill="url(#g)" opacity="0.9"/><rect x="101.8" y="124.0" width="4.9" height="2.0" rx="3" fill="url(#g)" opacity="0.9"/><rect x="110.7" y="124.0" width="4.9" height="2.0" rx="3" fill="url(#g)" opacity="0.9"/><rect x="119.7" y="124.0" width="4.9" height="2.0" rx="3" fill="url(#g)" opacity="0.9"/><rect x="128.7" y="124.0" width="4.9" height="2.0" rx="3" fill="url(#g)" opacity="0.9"/><rect x="137.7" y="124.0" width="4.9" height="2.0" rx="3" fill="url(#g)" opacity="0.9"/><rect x="146.6" y="124.0" width="4.9" height="2.0" rx="3" fill="url(#g)" opacity="0.9"/><rect x="155.6" y="124.0" width="4.9" height="2.0" rx="3" fill="url(#g)" opacity="0.9"/><rect x="164.6" y="124.0" width="4.9" height="2.0" rx="3" fill="url(#g)" opacity="0.9"/><rect x="173.6" y="124.0" width="4.9" height="2.0" rx="3" fill="url(#g)" opacity="0.9"/><rect x="182.5" y="124.0" width="4.9" height="2.0" rx="3" fill="url(#g)" opacity="0.9"/><rect x="191.5" y="124.0" width="4.9" height="2.0" rx="3" fill="url(#g)" opacity="0.9"/><rect x="200.5" y="124.0" width="4.9" height="2.0" rx="3" fill="url(#g)" opacity="0.9"/><rect x="209.5" y="124.0" width="4.9" height="2.0" rx="3" fill="url(#g)" opacity="0.9"/><rect x="218.4" y="124.0" width="4.9" height="2.0" rx="3" fill="url(#g)" opacity="0.9"/><rect x="227.4" y="124.0" width="4.9" height="2.0" rx="3" fill="url(#g)" opacity="0.9"/><rect x="236.4" y="124.0" width="4.9" height="2.0" rx="3" fill="url(#g)" opacity="0.9"/><rect x="245.4" y="124.0" width="4.9" height="2.0" rx="3" fill="url(#g)" opacity="0.9"/><rect x="254.3" y="124.0" width="4.9" height="2.0" rx="3" fill="url(#g)" opacity="0.9"/><rect x="263.3" y="124.0" width="4.9" height="2.0" rx="3" fill="url(#g)" opacity="0.9"/><rect x="272.3" y="124.0" width="4.9" height="2.0" rx="3" fill="url(#g)" opacity="0.9"/><rect x="281.3" y="124.0" width="4.9" height="2.0" rx="3" fill="url(#g)" opacity="0.9"/><rect x="290.2" y="124.0" width="4.9" height="2.0" rx="3" fill="url(#g)" opacity="0.9"/><rect x="299.2" y="124.0" width="4.9" height="2.0" rx="3" fill="url(#g)" opacity="0.9"/><rect x="308.2" y="124.0" width="4.9" height="2.0" rx="3" fill="url(#g)" opacity="0.9"/><rect x="317.1" y="124.0" width="4.9" height="2.0" rx="3" fill="url(#g)" opacity="0.9"/><rect x="326.1" y="124.0" width="4.9" height="2.0" rx="3" fill="url(#g)" opacity="0.9"/><rect x="335.1" y="124.0" width="4.9" height="2.0" rx="3" fill="url(#g)" opacity="0.9"/><rect x="344.1" y="124.0" width="4.9" height="2.0" rx="3" fill="url(#g)" opacity="0.9"/><rect x="353.0" y="124.0" width="4.9" height="2.0" rx="3" fill="url(#g)" opacity="0.9"/><rect x="362.0" y="124.0" width="4.9" height="2.0" rx="3" fill="url(#g)" opacity="0.9"/><rect x="371.0" y="124.0" width="4.9" height="2.0" rx="3" fill="url(#g)" opacity="0.9"/><rect x="380.0" y="124.0" width="4.9" height="2.0" rx="3" fill="url(#g)" opacity="0.9"/><rect x="388.9" y="124.0" width="4.9" height="2.0" rx="3" fill="url(#g)" opacity="0.9"/><rect x="397.9" y="124.0" width="4.9" height="2.0" rx="3" fill="url(#g)" opacity="0.9"/><rect x="406.9" y="124.0" width="4.9" height="2.0" rx="3" fill="url(#g)" opacity="0.9"/><rect x="415.9" y="124.0" width="4.9" height="2.0" rx="3" fill="url(#g)" opacity="0.9"/><rect x="424.8" y="124.0" width="4.9" height="2.0" rx="3" fill="url(#g)" opacity="0.9"/><rect x="433.8" y="124.0" width="4.9" height="2.0" rx="3" fill="url(#g)" opacity="0.9"/><rect x="442.8" y="124.0" width="4.9" height="2.0" rx="3" fill="url(#g)" opacity="0.9"/><rect x="451.8" y="124.0" width="4.9" height="2.0" rx="3" fill="url(#g)" opacity="0.9"/><rect x="460.7" y="124.0" width="4.9" height="2.0" rx="3" fill="url(#g)" opacity="0.9"/><rect x="469.7" y="124.0" width="4.9" height="2.0" rx="3" fill="url(#g)" opacity="0.9"/><rect x="478.7" y="124.0" width="4.9" height="2.0" rx="3" fill="url(#g)" opacity="0.9"/><rect x="487.7" y="124.0" width="4.9" height="2.0" rx="3" fill="url(#g)" opacity="0.9"/><rect x="496.6" y="124.0" width="4.9" height="2.0" rx="3" fill="url(#g)" opacity="0.9"/><rect x="505.6" y="124.0" width="4.9" height="2.0" rx="3" fill="url(#g)" opacity="0.9"/><rect x="514.6" y="124.0" width="4.9" height="2.0" rx="3" fill="url(#g)" opacity="0.9"/><rect x="523.6" y="124.0" width="4.9" height="2.0" rx="3" fill="url(#g)" opacity="0.9"/><rect x="532.5" y="124.0" width="4.9" height="2.0" rx="3" fill="url(#g)" opacity="0.9"/><rect x="541.5" y="124.0" width="4.9" height="2.0" rx="3" fill="url(#g)" opacity="0.9"/><rect x="550.5" y="124.0" width="4.9" height="2.0" rx="3" fill="url(#g)" opacity="0.9"/><rect x="559.5" y="124.0" width="4.9" height="2.0" rx="3" fill="url(#g)" opacity="0.9"/><rect x="568.4" y="124.0" width="4.9" height="2.0" rx="3" fill="url(#g)" opacity="0.9"/><rect x="577.4" y="124.0" width="4.9" height="2.0" rx="3" fill="url(#g)" opacity="0.9"/><rect x="586.4" y="124.0" width="4.9" height="2.0" rx="3" fill="url(#g)" opacity="0.9"/><rect x="595.4" y="124.0" width="4.9" height="2.0" rx="3" fill="url(#g)" opacity="0.9"/><rect x="604.3" y="124.0" width="4.9" height="2.0" rx="3" fill="url(#g)" opacity="0.9"/><rect x="613.3" y="124.0" width="4.9" height="2.0" rx="3" fill="url(#g)" opacity="0.9"/><rect x="622.3" y="124.0" width="4.9" height="2.0" rx="3" fill="url(#g)" opacity="0.9"/><rect x="631.3" y="124.0" width="4.9" height="2.0" rx="3" fill="url(#g)" opacity="0.9"/><rect x="640.2" y="124.0" width="4.9" height="2.0" rx="3" fill="url(#g)" opacity="0.9"/><rect x="649.2" y="124.0" width="4.9" height="2.0" rx="3" fill="url(#g)" opacity="0.9"/><rect x="658.2" y="124.0" width="4.9" height="2.0" rx="3" fill="url(#g)" opacity="0.9"/><rect x="667.1" y="124.0" width="4.9" height="2.0" rx="3" fill="url(#g)" opacity="0.9"/><rect x="676.1" y="124.0" width="4.9" height="2.0" rx="3" fill="url(#g)" opacity="0.9"/><rect x="685.1" y="124.0" width="4.9" height="2.0" rx="3" fill="url(#g)" opacity="0.9"/><rect x="694.1" y="124.0" width="4.9" height="2.0" rx="3" fill="url(#g)" opacity="0.9"/><rect x="703.0" y="124.0" width="4.9" height="2.0" rx="3" fill="url(#g)" opacity="0.9"/>
  <polyline points="23.5,88.5 32.4,74.0 41.4,73.7 50.4,73.6 59.4,73.5 68.3,73.3 77.3,73.0 86.3,72.3 95.3,72.1 104.2,71.6 113.2,70.9 122.2,70.4 131.2,69.8 140.1,69.0 149.1,67.5 158.1,66.5 167.1,65.8 176.0,64.6 185.0,63.7 194.0,62.6 202.9,62.0 211.9,61.2 220.9,60.5 229.9,59.7 238.8,58.8 247.8,58.0 256.8,57.8 265.8,57.2 274.7,57.1 283.7,56.4 292.7,56.0 301.7,55.7 310.6,55.0 319.6,54.7 328.6,54.5 337.6,53.9 346.5,53.2 355.5,52.8 364.5,52.6 373.5,52.4 382.4,51.5 391.4,51.4 400.4,51.2 409.4,50.6 418.3,50.2 427.3,49.9 436.3,49.6 445.3,49.4 454.2,49.1 463.2,49.1 472.2,48.9 481.2,48.6 490.1,48.4 499.1,48.2 508.1,47.9 517.1,47.7 526.0,47.5 535.0,47.3 544.0,47.1 552.9,46.8 561.9,46.5 570.9,45.6 579.9,45.4 588.8,45.2 597.8,44.9 606.8,44.6 615.8,44.3 624.7,44.0 633.7,43.2 642.7,42.2 651.7,42.2 660.6,41.9 669.6,41.0 678.6,40.1 687.6,39.7 696.5,39.6 705.5,39.6" fill="none" stroke="#4ad6f0" stroke-width="2.5" stroke-linecap="round" stroke-linejoin="round"/>
</svg>
