<svg xmlns="http://www.w3.org/2000/svg" width="720" height="150" viewBox="0 0 720 150" role="img" aria-label="lodestone downloads over time">
  <defs>
    <linearGradient id="g" x1="0" y1="1" x2="0" y2="0">
      <stop offset="0" stop-color="#7c6cba"/>
      <stop offset="1" stop-color="#4ad6f0"/>
    </linearGradient>
  </defs>
  <text x="10" y="18" font-family="ui-sans-serif,system-ui,sans-serif" font-size="12" font-weight="600" fill="#1f2328" text-anchor="start">downloads</text>
  <text x="110" y="18" font-family="ui-sans-serif,system-ui,sans-serif" font-size="11" font-weight="400" fill="#59636e" text-anchor="start">▮ npm / day (0 on 07-20)</text>
  <text x="320" y="18" font-family="ui-sans-serif,system-ui,sans-serif" font-size="11" font-weight="400" fill="#59636e" text-anchor="start">— extension total (1158)</text>
  <text x="710" y="18" font-family="ui-sans-serif,system-ui,sans-serif" font-size="11" font-weight="400" fill="#59636e" text-anchor="end">updates daily · 2026-07-20</text>
  <rect x="40.8" y="100.1" width="26.0" height="25.9" rx="3" fill="url(#g)" opacity="0.9"/><rect x="128.3" y="39.6" width="26.0" height="86.4" rx="3" fill="url(#g)" opacity="0.9"/><rect x="215.8" y="122.0" width="26.0" height="4.0" rx="3" fill="url(#g)" opacity="0.9"/><rect x="303.3" y="124.0" width="26.0" height="2.0" rx="3" fill="url(#g)" opacity="0.9"/><rect x="390.8" y="124.0" width="26.0" height="2.0" rx="3" fill="url(#g)" opacity="0.9"/><rect x="478.3" y="124.0" width="26.0" height="2.0" rx="3" fill="url(#g)" opacity="0.9"/><rect x="565.8" y="124.0" width="26.0" height="2.0" rx="3" fill="url(#g)" opacity="0.9"/><rect x="653.3" y="124.0" width="26.0" height="2.0" rx="3" fill="url(#g)" opacity="0.9"/>
  <polyline points="141.3,64.5 228.8,40.8 316.3,40.3 403.8,40.2 491.3,40.0 578.8,39.7 666.3,39.6" fill="none" stroke="#4ad6f0" stroke-width="2.5" stroke-linecap="round" stroke-linejoin="round"/>
</svg>
