<svg xmlns="http://www.w3.org/2000/svg" width="720" height="150" viewBox="0 0 720 150" role="img" aria-label="lodestone downloads over time">
  <defs>
    <linearGradient id="g" x1="0" y1="1" x2="0" y2="0">
      <stop offset="0" stop-color="#7c6cba"/>
      <stop offset="1" stop-color="#4ad6f0"/>
    </linearGradient>
  </defs>
  <text x="10" y="18" font-family="ui-sans-serif,system-ui,sans-serif" font-size="12" font-weight="600" fill="#1f2328" text-anchor="start">downloads</text>
  <text x="110" y="18" font-family="ui-sans-serif,system-ui,sans-serif" font-size="11" font-weight="400" fill="#59636e" text-anchor="start">▮ npm / day (0 on 08-04)</text>
  <text x="320" y="18" font-family="ui-sans-serif,system-ui,sans-serif" font-size="11" font-weight="400" fill="#59636e" text-anchor="start">— extension total (1420)</text>
  <text x="710" y="18" font-family="ui-sans-serif,system-ui,sans-serif" font-size="11" font-weight="400" fill="#59636e" text-anchor="end">updates daily · 2026-08-04</text>
  <rect x="16.8" y="100.1" width="16.7" height="25.9" rx="3" fill="url(#g)" opacity="0.9"/><rect x="47.3" y="39.6" width="16.7" height="86.4" rx="3" fill="url(#g)" opacity="0.9"/><rect x="77.7" y="122.0" width="16.7" height="4.0" rx="3" fill="url(#g)" opacity="0.9"/><rect x="108.2" y="124.0" width="16.7" height="2.0" rx="3" fill="url(#g)" opacity="0.9"/><rect x="138.6" y="124.0" width="16.7" height="2.0" rx="3" fill="url(#g)" opacity="0.9"/><rect x="169.0" y="124.0" width="16.7" height="2.0" rx="3" fill="url(#g)" opacity="0.9"/><rect x="199.5" y="124.0" width="16.7" height="2.0" rx="3" fill="url(#g)" opacity="0.9"/><rect x="229.9" y="124.0" width="16.7" height="2.0" rx="3" fill="url(#g)" opacity="0.9"/><rect x="260.3" y="124.0" width="16.7" height="2.0" rx="3" fill="url(#g)" opacity="0.9"/><rect x="290.8" y="124.0" width="16.7" height="2.0" rx="3" fill="url(#g)" opacity="0.9"/><rect x="321.2" y="124.0" width="16.7" height="2.0" rx="3" fill="url(#g)" opacity="0.9"/><rect x="351.6" y="124.0" width="16.7" height="2.0" rx="3" fill="url(#g)" opacity="0.9"/><rect x="382.1" y="124.0" width="16.7" height="2.0" rx="3" fill="url(#g)" opacity="0.9"/><rect x="412.5" y="124.0" width="16.7" height="2.0" rx="3" fill="url(#g)" opacity="0.9"/><rect x="442.9" y="124.0" width="16.7" height="2.0" rx="3" fill="url(#g)" opacity="0.9"/><rect x="473.4" y="124.0" width="16.7" height="2.0" rx="3" fill="url(#g)" opacity="0.9"/><rect x="503.8" y="124.0" width="16.7" height="2.0" rx="3" fill="url(#g)" opacity="0.9"/><rect x="534.2" y="124.0" width="16.7" height="2.0" rx="3" fill="url(#g)" opacity="0.9"/><rect x="564.7" y="124.0" width="16.7" height="2.0" rx="3" fill="url(#g)" opacity="0.9"/><rect x="595.1" y="124.0" width="16.7" height="2.0" rx="3" fill="url(#g)" opacity="0.9"/><rect x="625.5" y="124.0" width="16.7" height="2.0" rx="3" fill="url(#g)" opacity="0.9"/><rect x="656.0" y="124.0" width="16.7" height="2.0" rx="3" fill="url(#g)" opacity="0.9"/><rect x="686.4" y="124.0" width="16.7" height="2.0" rx="3" fill="url(#g)" opacity="0.9"/>
  <polyline points="55.7,75.9 86.1,56.5 116.5,56.1 147.0,56.0 177.4,55.9 207.8,55.7 238.3,55.2 268.7,54.3 299.1,54.1 329.6,53.4 360.0,52.4 390.4,51.8 420.9,50.9 451.3,49.9 481.7,47.9 512.2,46.5 542.6,45.7 573.0,44.0 603.5,42.8 633.9,41.3 664.3,40.6 694.8,39.6" fill="none" stroke="#4ad6f0" stroke-width="2.5" stroke-linecap="round" stroke-linejoin="round"/>
</svg>
