<svg xmlns="http://www.w3.org/2000/svg" width="720" height="150" viewBox="0 0 720 150" role="img" aria-label="lodestone downloads over time">
  <defs>
    <linearGradient id="g" x1="0" y1="1" x2="0" y2="0">
      <stop offset="0" stop-color="#7c6cba"/>
      <stop offset="1" stop-color="#4ad6f0"/>
    </linearGradient>
  </defs>
  <text x="10" y="18" font-family="ui-sans-serif,system-ui,sans-serif" font-size="12" font-weight="600" fill="#e6e6e6" text-anchor="start">downloads</text>
  <text x="110" y="18" font-family="ui-sans-serif,system-ui,sans-serif" font-size="11" font-weight="400" fill="#9198a1" text-anchor="start">▮ npm / day (0 on 08-30)</text>
  <text x="320" y="18" font-family="ui-sans-serif,system-ui,sans-serif" font-size="11" font-weight="400" fill="#9198a1" text-anchor="start">— extension total (1676)</text>
  <text x="710" y="18" font-family="ui-sans-serif,system-ui,sans-serif" font-size="11" font-weight="400" fill="#9198a1" text-anchor="end">updates daily · 2026-08-30</text>
  <rect x="13.2" y="100.1" width="7.9" height="25.9" rx="3" fill="url(#g)" opacity="0.9"/><rect x="27.5" y="39.6" width="7.9" height="86.4" rx="3" fill="url(#g)" opacity="0.9"/><rect x="41.8" y="122.0" width="7.9" height="4.0" rx="3" fill="url(#g)" opacity="0.9"/><rect x="56.1" y="124.0" width="7.9" height="2.0" rx="3" fill="url(#g)" opacity="0.9"/><rect x="70.4" y="124.0" width="7.9" height="2.0" rx="3" fill="url(#g)" opacity="0.9"/><rect x="84.6" y="124.0" width="7.9" height="2.0" rx="3" fill="url(#g)" opacity="0.9"/><rect x="98.9" y="124.0" width="7.9" height="2.0" rx="3" fill="url(#g)" opacity="0.9"/><rect x="113.2" y="124.0" width="7.9" height="2.0" rx="3" fill="url(#g)" opacity="0.9"/><rect x="127.5" y="124.0" width="7.9" height="2.0" rx="3" fill="url(#g)" opacity="0.9"/><rect x="141.8" y="124.0" width="7.9" height="2.0" rx="3" fill="url(#g)" opacity="0.9"/><rect x="156.1" y="124.0" width="7.9" height="2.0" rx="3" fill="url(#g)" opacity="0.9"/><rect x="170.4" y="124.0" width="7.9" height="2.0" rx="3" fill="url(#g)" opacity="0.9"/><rect x="184.6" y="124.0" width="7.9" height="2.0" rx="3" fill="url(#g)" opacity="0.9"/><rect x="198.9" y="124.0" width="7.9" height="2.0" rx="3" fill="url(#g)" opacity="0.9"/><rect x="213.2" y="124.0" width="7.9" height="2.0" rx="3" fill="url(#g)" opacity="0.9"/><rect x="227.5" y="124.0" width="7.9" height="2.0" rx="3" fill="url(#g)" opacity="0.9"/><rect x="241.8" y="124.0" width="7.9" height="2.0" rx="3" fill="url(#g)" opacity="0.9"/><rect x="256.1" y="124.0" width="7.9" height="2.0" rx="3" fill="url(#g)" opacity="0.9"/><rect x="270.4" y="124.0" width="7.9" height="2.0" rx="3" fill="url(#g)" opacity="0.9"/><rect x="284.6" y="124.0" width="7.9" height="2.0" rx="3" fill="url(#g)" opacity="0.9"/><rect x="298.9" y="124.0" width="7.9" height="2.0" rx="3" fill="url(#g)" opacity="0.9"/><rect x="313.2" y="124.0" width="7.9" height="2.0" rx="3" fill="url(#g)" opacity="0.9"/><rect x="327.5" y="124.0" width="7.9" height="2.0" rx="3" fill="url(#g)" opacity="0.9"/><rect x="341.8" y="124.0" width="7.9" height="2.0" rx="3" fill="url(#g)" opacity="0.9"/><rect x="356.1" y="124.0" width="7.9" height="2.0" rx="3" fill="url(#g)" opacity="0.9"/><rect x="370.4" y="124.0" width="7.9" height="2.0" rx="3" fill="url(#g)" opacity="0.9"/><rect x="384.6" y="124.0" width="7.9" height="2.0" rx="3" fill="url(#g)" opacity="0.9"/><rect x="398.9" y="124.0" width="7.9" height="2.0" rx="3" fill="url(#g)" opacity="0.9"/><rect x="413.2" y="124.0" width="7.9" height="2.0" rx="3" fill="url(#g)" opacity="0.9"/><rect x="427.5" y="124.0" width="7.9" height="2.0" rx="3" fill="url(#g)" opacity="0.9"/><rect x="441.8" y="124.0" width="7.9" height="2.0" rx="3" fill="url(#g)" opacity="0.9"/><rect x="456.1" y="124.0" width="7.9" height="2.0" rx="3" fill="url(#g)" opacity="0.9"/><rect x="470.4" y="124.0" width="7.9" height="2.0" rx="3" fill="url(#g)" opacity="0.9"/><rect x="484.6" y="124.0" width="7.9" height="2.0" rx="3" fill="url(#g)" opacity="0.9"/><rect x="498.9" y="124.0" width="7.9" height="2.0" rx="3" fill="url(#g)" opacity="0.9"/><rect x="513.2" y="124.0" width="7.9" height="2.0" rx="3" fill="url(#g)" opacity="0.9"/><rect x="527.5" y="124.0" width="7.9" height="2.0" rx="3" fill="url(#g)" opacity="0.9"/><rect x="541.8" y="124.0" width="7.9" height="2.0" rx="3" fill="url(#g)" opacity="0.9"/><rect x="556.1" y="124.0" width="7.9" height="2.0" rx="3" fill="url(#g)" opacity="0.9"/><rect x="570.4" y="124.0" width="7.9" height="2.0" rx="3" fill="url(#g)" opacity="0.9"/><rect x="584.6" y="124.0" width="7.9" height="2.0" rx="3" fill="url(#g)" opacity="0.9"/><rect x="598.9" y="124.0" width="7.9" height="2.0" rx="3" fill="url(#g)" opacity="0.9"/><rect x="613.2" y="124.0" width="7.9" height="2.0" rx="3" fill="url(#g)" opacity="0.9"/><rect x="627.5" y="124.0" width="7.9" height="2.0" rx="3" fill="url(#g)" opacity="0.9"/><rect x="641.8" y="124.0" width="7.9" height="2.0" rx="3" fill="url(#g)" opacity="0.9"/><rect x="656.1" y="124.0" width="7.9" height="2.0" rx="3" fill="url(#g)" opacity="0.9"/><rect x="670.4" y="124.0" width="7.9" height="2.0" rx="3" fill="url(#g)" opacity="0.9"/><rect x="684.6" y="124.0" width="7.9" height="2.0" rx="3" fill="url(#g)" opacity="0.9"/><rect x="698.9" y="124.0" width="7.9" height="2.0" rx="3" fill="url(#g)" opacity="0.9"/>
  <polyline points="31.4,83.5 45.7,67.1 60.0,66.8 74.3,66.7 88.6,66.6 102.9,66.4 117.1,66.0 131.4,65.3 145.7,65.1 160.0,64.4 174.3,63.6 188.6,63.1 202.9,62.4 217.1,61.6 231.4,59.8 245.7,58.7 260.0,58.0 274.3,56.5 288.6,55.5 302.9,54.2 317.1,53.6 331.4,52.7 345.7,51.9 360.0,50.9 374.3,50.0 388.6,49.1 402.9,48.9 417.1,48.2 431.4,48.1 445.7,47.2 460.0,46.8 474.3,46.5 488.6,45.7 502.9,45.4 517.1,45.2 531.4,44.4 545.7,43.6 560.0,43.2 574.3,43.0 588.6,42.7 602.9,41.8 617.1,41.6 631.4,41.4 645.7,40.7 660.0,40.2 674.3,39.9 688.6,39.6 702.9,39.6" fill="none" stroke="#4ad6f0" stroke-width="2.5" stroke-linecap="round" stroke-linejoin="round"/>
</svg>
