<svg xmlns="http://www.w3.org/2000/svg" width="720" height="150" viewBox="0 0 720 150" role="img" aria-label="lodestone downloads over time">
  <defs>
    <linearGradient id="g" x1="0" y1="1" x2="0" y2="0">
      <stop offset="0" stop-color="#7c6cba"/>
      <stop offset="1" stop-color="#4ad6f0"/>
    </linearGradient>
  </defs>
  <text x="10" y="18" font-family="ui-sans-serif,system-ui,sans-serif" font-size="12" font-weight="600" fill="#1f2328" text-anchor="start">downloads</text>
  <text x="110" y="18" font-family="ui-sans-serif,system-ui,sans-serif" font-size="11" font-weight="400" fill="#59636e" text-anchor="start">▮ npm / day (0 on 08-10)</text>
  <text x="320" y="18" font-family="ui-sans-serif,system-ui,sans-serif" font-size="11" font-weight="400" fill="#59636e" text-anchor="start">— extension total (1506)</text>
  <text x="710" y="18" font-family="ui-sans-serif,system-ui,sans-serif" font-size="11" font-weight="400" fill="#59636e" text-anchor="end">updates daily · 2026-08-10</text>
  <rect x="15.4" y="100.1" width="13.3" height="25.9" rx="3" fill="url(#g)" opacity="0.9"/><rect x="39.6" y="39.6" width="13.3" height="86.4" rx="3" fill="url(#g)" opacity="0.9"/><rect x="63.7" y="122.0" width="13.3" height="4.0" rx="3" fill="url(#g)" opacity="0.9"/><rect x="87.8" y="124.0" width="13.3" height="2.0" rx="3" fill="url(#g)" opacity="0.9"/><rect x="112.0" y="124.0" width="13.3" height="2.0" rx="3" fill="url(#g)" opacity="0.9"/><rect x="136.1" y="124.0" width="13.3" height="2.0" rx="3" fill="url(#g)" opacity="0.9"/><rect x="160.3" y="124.0" width="13.3" height="2.0" rx="3" fill="url(#g)" opacity="0.9"/><rect x="184.4" y="124.0" width="13.3" height="2.0" rx="3" fill="url(#g)" opacity="0.9"/><rect x="208.5" y="124.0" width="13.3" height="2.0" rx="3" fill="url(#g)" opacity="0.9"/><rect x="232.7" y="124.0" width="13.3" height="2.0" rx="3" fill="url(#g)" opacity="0.9"/><rect x="256.8" y="124.0" width="13.3" height="2.0" rx="3" fill="url(#g)" opacity="0.9"/><rect x="280.9" y="124.0" width="13.3" height="2.0" rx="3" fill="url(#g)" opacity="0.9"/><rect x="305.1" y="124.0" width="13.3" height="2.0" rx="3" fill="url(#g)" opacity="0.9"/><rect x="329.2" y="124.0" width="13.3" height="2.0" rx="3" fill="url(#g)" opacity="0.9"/><rect x="353.4" y="124.0" width="13.3" height="2.0" rx="3" fill="url(#g)" opacity="0.9"/><rect x="377.5" y="124.0" width="13.3" height="2.0" rx="3" fill="url(#g)" opacity="0.9"/><rect x="401.6" y="124.0" width="13.3" height="2.0" rx="3" fill="url(#g)" opacity="0.9"/><rect x="425.8" y="124.0" width="13.3" height="2.0" rx="3" fill="url(#g)" opacity="0.9"/><rect x="449.9" y="124.0" width="13.3" height="2.0" rx="3" fill="url(#g)" opacity="0.9"/><rect x="474.1" y="124.0" width="13.3" height="2.0" rx="3" fill="url(#g)" opacity="0.9"/><rect x="498.2" y="124.0" width="13.3" height="2.0" rx="3" fill="url(#g)" opacity="0.9"/><rect x="522.3" y="124.0" width="13.3" height="2.0" rx="3" fill="url(#g)" opacity="0.9"/><rect x="546.5" y="124.0" width="13.3" height="2.0" rx="3" fill="url(#g)" opacity="0.9"/><rect x="570.6" y="124.0" width="13.3" height="2.0" rx="3" fill="url(#g)" opacity="0.9"/><rect x="594.7" y="124.0" width="13.3" height="2.0" rx="3" fill="url(#g)" opacity="0.9"/><rect x="618.9" y="124.0" width="13.3" height="2.0" rx="3" fill="url(#g)" opacity="0.9"/><rect x="643.0" y="124.0" width="13.3" height="2.0" rx="3" fill="url(#g)" opacity="0.9"/><rect x="667.2" y="124.0" width="13.3" height="2.0" rx="3" fill="url(#g)" opacity="0.9"/><rect x="691.3" y="124.0" width="13.3" height="2.0" rx="3" fill="url(#g)" opacity="0.9"/>
  <polyline points="46.2,78.7 70.3,60.5 94.5,60.1 118.6,60.0 142.8,59.9 166.9,59.7 191.0,59.2 215.2,58.4 239.3,58.2 263.4,57.5 287.6,56.6 311.7,56.0 335.9,55.2 360.0,54.3 384.1,52.3 408.3,51.1 432.4,50.3 456.6,48.7 480.7,47.5 504.8,46.1 529.0,45.5 553.1,44.4 577.2,43.5 601.4,42.5 625.5,41.4 649.7,40.4 673.8,40.2 697.9,39.6" fill="none" stroke="#4ad6f0" stroke-width="2.5" stroke-linecap="round" stroke-linejoin="round"/>
</svg>
