<svg xmlns="http://www.w3.org/2000/svg" width="720" height="150" viewBox="0 0 720 150" role="img" aria-label="lodestone downloads over time">
  <defs>
    <linearGradient id="g" x1="0" y1="1" x2="0" y2="0">
      <stop offset="0" stop-color="#7c6cba"/>
      <stop offset="1" stop-color="#4ad6f0"/>
    </linearGradient>
  </defs>
  <text x="10" y="18" font-family="ui-sans-serif,system-ui,sans-serif" font-size="12" font-weight="600" fill="#e6e6e6" text-anchor="start">downloads</text>
  <text x="110" y="18" font-family="ui-sans-serif,system-ui,sans-serif" font-size="11" font-weight="400" fill="#9198a1" text-anchor="start">▮ npm / day (0 on 09-24)</text>
  <text x="320" y="18" font-family="ui-sans-serif,system-ui,sans-serif" font-size="11" font-weight="400" fill="#9198a1" text-anchor="start">— extension total (1846)</text>
  <text x="710" y="18" font-family="ui-sans-serif,system-ui,sans-serif" font-size="11" font-weight="400" fill="#9198a1" text-anchor="end">updates daily · 2026-09-24</text>
  <rect x="12.1" y="100.1" width="5.2" height="25.9" rx="3" fill="url(#g)" opacity="0.9"/><rect x="21.6" y="39.6" width="5.2" height="86.4" rx="3" fill="url(#g)" opacity="0.9"/><rect x="31.0" y="122.0" width="5.2" height="4.0" rx="3" fill="url(#g)" opacity="0.9"/><rect x="40.5" y="124.0" width="5.2" height="2.0" rx="3" fill="url(#g)" opacity="0.9"/><rect x="50.0" y="124.0" width="5.2" height="2.0" rx="3" fill="url(#g)" opacity="0.9"/><rect x="59.4" y="124.0" width="5.2" height="2.0" rx="3" fill="url(#g)" opacity="0.9"/><rect x="68.9" y="124.0" width="5.2" height="2.0" rx="3" fill="url(#g)" opacity="0.9"/><rect x="78.3" y="124.0" width="5.2" height="2.0" rx="3" fill="url(#g)" opacity="0.9"/><rect x="87.8" y="124.0" width="5.2" height="2.0" rx="3" fill="url(#g)" opacity="0.9"/><rect x="97.3" y="124.0" width="5.2" height="2.0" rx="3" fill="url(#g)" opacity="0.9"/><rect x="106.7" y="124.0" width="5.2" height="2.0" rx="3" fill="url(#g)" opacity="0.9"/><rect x="116.2" y="124.0" width="5.2" height="2.0" rx="3" fill="url(#g)" opacity="0.9"/><rect x="125.6" y="124.0" width="5.2" height="2.0" rx="3" fill="url(#g)" opacity="0.9"/><rect x="135.1" y="124.0" width="5.2" height="2.0" rx="3" fill="url(#g)" opacity="0.9"/><rect x="144.6" y="124.0" width="5.2" height="2.0" rx="3" fill="url(#g)" opacity="0.9"/><rect x="154.0" y="124.0" width="5.2" height="2.0" rx="3" fill="url(#g)" opacity="0.9"/><rect x="163.5" y="124.0" width="5.2" height="2.0" rx="3" fill="url(#g)" opacity="0.9"/><rect x="172.9" y="124.0" width="5.2" height="2.0" rx="3" fill="url(#g)" opacity="0.9"/><rect x="182.4" y="124.0" width="5.2" height="2.0" rx="3" fill="url(#g)" opacity="0.9"/><rect x="191.9" y="124.0" width="5.2" height="2.0" rx="3" fill="url(#g)" opacity="0.9"/><rect x="201.3" y="124.0" width="5.2" height="2.0" rx="3" fill="url(#g)" opacity="0.9"/><rect x="210.8" y="124.0" width="5.2" height="2.0" rx="3" fill="url(#g)" opacity="0.9"/><rect x="220.2" y="124.0" width="5.2" height="2.0" rx="3" fill="url(#g)" opacity="0.9"/><rect x="229.7" y="124.0" width="5.2" height="2.0" rx="3" fill="url(#g)" opacity="0.9"/><rect x="239.2" y="124.0" width="5.2" height="2.0" rx="3" fill="url(#g)" opacity="0.9"/><rect x="248.6" y="124.0" width="5.2" height="2.0" rx="3" fill="url(#g)" opacity="0.9"/><rect x="258.1" y="124.0" width="5.2" height="2.0" rx="3" fill="url(#g)" opacity="0.9"/><rect x="267.5" y="124.0" width="5.2" height="2.0" rx="3" fill="url(#g)" opacity="0.9"/><rect x="277.0" y="124.0" width="5.2" height="2.0" rx="3" fill="url(#g)" opacity="0.9"/><rect x="286.5" y="124.0" width="5.2" height="2.0" rx="3" fill="url(#g)" opacity="0.9"/><rect x="295.9" y="124.0" width="5.2" height="2.0" rx="3" fill="url(#g)" opacity="0.9"/><rect x="305.4" y="124.0" width="5.2" height="2.0" rx="3" fill="url(#g)" opacity="0.9"/><rect x="314.8" y="124.0" width="5.2" height="2.0" rx="3" fill="url(#g)" opacity="0.9"/><rect x="324.3" y="124.0" width="5.2" height="2.0" rx="3" fill="url(#g)" opacity="0.9"/><rect x="333.8" y="124.0" width="5.2" height="2.0" rx="3" fill="url(#g)" opacity="0.9"/><rect x="343.2" y="124.0" width="5.2" height="2.0" rx="3" fill="url(#g)" opacity="0.9"/><rect x="352.7" y="124.0" width="5.2" height="2.0" rx="3" fill="url(#g)" opacity="0.9"/><rect x="362.1" y="124.0" width="5.2" height="2.0" rx="3" fill="url(#g)" opacity="0.9"/><rect x="371.6" y="124.0" width="5.2" height="2.0" rx="3" fill="url(#g)" opacity="0.9"/><rect x="381.0" y="124.0" width="5.2" height="2.0" rx="3" fill="url(#g)" opacity="0.9"/><rect x="390.5" y="124.0" width="5.2" height="2.0" rx="3" fill="url(#g)" opacity="0.9"/><rect x="400.0" y="124.0" width="5.2" height="2.0" rx="3" fill="url(#g)" opacity="0.9"/><rect x="409.4" y="124.0" width="5.2" height="2.0" rx="3" fill="url(#g)" opacity="0.9"/><rect x="418.9" y="124.0" width="5.2" height="2.0" rx="3" fill="url(#g)" opacity="0.9"/><rect x="428.3" y="124.0" width="5.2" height="2.0" rx="3" fill="url(#g)" opacity="0.9"/><rect x="437.8" y="124.0" width="5.2" height="2.0" rx="3" fill="url(#g)" opacity="0.9"/><rect x="447.3" y="124.0" width="5.2" height="2.0" rx="3" fill="url(#g)" opacity="0.9"/><rect x="456.7" y="124.0" width="5.2" height="2.0" rx="3" fill="url(#g)" opacity="0.9"/><rect x="466.2" y="124.0" width="5.2" height="2.0" rx="3" fill="url(#g)" opacity="0.9"/><rect x="475.6" y="124.0" width="5.2" height="2.0" rx="3" fill="url(#g)" opacity="0.9"/><rect x="485.1" y="124.0" width="5.2" height="2.0" rx="3" fill="url(#g)" opacity="0.9"/><rect x="494.6" y="124.0" width="5.2" height="2.0" rx="3" fill="url(#g)" opacity="0.9"/><rect x="504.0" y="124.0" width="5.2" height="2.0" rx="3" fill="url(#g)" opacity="0.9"/><rect x="513.5" y="124.0" width="5.2" height="2.0" rx="3" fill="url(#g)" opacity="0.9"/><rect x="522.9" y="124.0" width="5.2" height="2.0" rx="3" fill="url(#g)" opacity="0.9"/><rect x="532.4" y="124.0" width="5.2" height="2.0" rx="3" fill="url(#g)" opacity="0.9"/><rect x="541.9" y="124.0" width="5.2" height="2.0" rx="3" fill="url(#g)" opacity="0.9"/><rect x="551.3" y="124.0" width="5.2" height="2.0" rx="3" fill="url(#g)" opacity="0.9"/><rect x="560.8" y="124.0" width="5.2" height="2.0" rx="3" fill="url(#g)" opacity="0.9"/><rect x="570.2" y="124.0" width="5.2" height="2.0" rx="3" fill="url(#g)" opacity="0.9"/><rect x="579.7" y="124.0" width="5.2" height="2.0" rx="3" fill="url(#g)" opacity="0.9"/><rect x="589.2" y="124.0" width="5.2" height="2.0" rx="3" fill="url(#g)" opacity="0.9"/><rect x="598.6" y="124.0" width="5.2" height="2.0" rx="3" fill="url(#g)" opacity="0.9"/><rect x="608.1" y="124.0" width="5.2" height="2.0" rx="3" fill="url(#g)" opacity="0.9"/><rect x="617.5" y="124.0" width="5.2" height="2.0" rx="3" fill="url(#g)" opacity="0.9"/><rect x="627.0" y="124.0" width="5.2" height="2.0" rx="3" fill="url(#g)" opacity="0.9"/><rect x="636.5" y="124.0" width="5.2" height="2.0" rx="3" fill="url(#g)" opacity="0.9"/><rect x="645.9" y="124.0" width="5.2" height="2.0" rx="3" fill="url(#g)" opacity="0.9"/><rect x="655.4" y="124.0" width="5.2" height="2.0" rx="3" fill="url(#g)" opacity="0.9"/><rect x="664.8" y="124.0" width="5.2" height="2.0" rx="3" fill="url(#g)" opacity="0.9"/><rect x="674.3" y="124.0" width="5.2" height="2.0" rx="3" fill="url(#g)" opacity="0.9"/><rect x="683.8" y="124.0" width="5.2" height="2.0" rx="3" fill="url(#g)" opacity="0.9"/><rect x="693.2" y="124.0" width="5.2" height="2.0" rx="3" fill="url(#g)" opacity="0.9"/><rect x="702.7" y="124.0" width="5.2" height="2.0" rx="3" fill="url(#g)" opacity="0.9"/>
  <polyline points="24.2,87.4 33.6,72.5 43.1,72.3 52.6,72.2 62.0,72.1 71.5,71.9 80.9,71.5 90.4,70.9 99.9,70.7 109.3,70.1 118.8,69.4 128.2,68.9 137.7,68.2 147.2,67.5 156.6,65.9 166.1,64.9 175.5,64.2 185.0,62.9 194.5,62.0 203.9,60.8 213.4,60.3 222.8,59.4 232.3,58.7 241.8,57.9 251.2,57.0 260.7,56.2 270.1,56.0 279.6,55.3 289.1,55.2 298.5,54.5 308.0,54.1 317.4,53.8 326.9,53.1 336.4,52.8 345.8,52.6 355.3,52.0 364.7,51.2 374.2,50.8 383.6,50.6 393.1,50.4 402.6,49.5 412.0,49.3 421.5,49.1 430.9,48.6 440.4,48.1 449.9,47.8 459.3,47.6 468.8,47.4 478.2,47.0 487.7,47.0 497.2,46.8 506.6,46.5 516.1,46.3 525.5,46.1 535.0,45.8 544.5,45.6 553.9,45.4 563.4,45.1 572.8,44.9 582.3,44.7 591.8,44.4 601.2,43.4 610.7,43.3 620.1,43.0 629.6,42.7 639.1,42.4 648.5,42.1 658.0,41.8 667.4,40.9 676.9,40.0 686.4,39.9 695.8,39.6 705.3,39.6" fill="none" stroke="#4ad6f0" stroke-width="2.5" stroke-linecap="round" stroke-linejoin="round"/>
</svg>
