<svg xmlns="http://www.w3.org/2000/svg" width="720" height="150" viewBox="0 0 720 150" role="img" aria-label="lodestone downloads over time">
  <defs>
    <linearGradient id="g" x1="0" y1="1" x2="0" y2="0">
      <stop offset="0" stop-color="#7c6cba"/>
      <stop offset="1" stop-color="#4ad6f0"/>
    </linearGradient>
  </defs>
  <text x="10" y="18" font-family="ui-sans-serif,system-ui,sans-serif" font-size="12" font-weight="600" fill="#1f2328" text-anchor="start">downloads</text>
  <text x="110" y="18" font-family="ui-sans-serif,system-ui,sans-serif" font-size="11" font-weight="400" fill="#59636e" text-anchor="start">▮ npm / day (0 on 09-06)</text>
  <text x="320" y="18" font-family="ui-sans-serif,system-ui,sans-serif" font-size="11" font-weight="400" fill="#59636e" text-anchor="start">— extension total (1708)</text>
  <text x="710" y="18" font-family="ui-sans-serif,system-ui,sans-serif" font-size="11" font-weight="400" fill="#59636e" text-anchor="end">updates daily · 2026-09-06</text>
  <rect x="12.8" y="100.1" width="6.9" height="25.9" rx="3" fill="url(#g)" opacity="0.9"/><rect x="25.3" y="39.6" width="6.9" height="86.4" rx="3" fill="url(#g)" opacity="0.9"/><rect x="37.8" y="122.0" width="6.9" height="4.0" rx="3" fill="url(#g)" opacity="0.9"/><rect x="50.3" y="124.0" width="6.9" height="2.0" rx="3" fill="url(#g)" opacity="0.9"/><rect x="62.8" y="124.0" width="6.9" height="2.0" rx="3" fill="url(#g)" opacity="0.9"/><rect x="75.3" y="124.0" width="6.9" height="2.0" rx="3" fill="url(#g)" opacity="0.9"/><rect x="87.8" y="124.0" width="6.9" height="2.0" rx="3" fill="url(#g)" opacity="0.9"/><rect x="100.3" y="124.0" width="6.9" height="2.0" rx="3" fill="url(#g)" opacity="0.9"/><rect x="112.8" y="124.0" width="6.9" height="2.0" rx="3" fill="url(#g)" opacity="0.9"/><rect x="125.3" y="124.0" width="6.9" height="2.0" rx="3" fill="url(#g)" opacity="0.9"/><rect x="137.8" y="124.0" width="6.9" height="2.0" rx="3" fill="url(#g)" opacity="0.9"/><rect x="150.3" y="124.0" width="6.9" height="2.0" rx="3" fill="url(#g)" opacity="0.9"/><rect x="162.8" y="124.0" width="6.9" height="2.0" rx="3" fill="url(#g)" opacity="0.9"/><rect x="175.3" y="124.0" width="6.9" height="2.0" rx="3" fill="url(#g)" opacity="0.9"/><rect x="187.8" y="124.0" width="6.9" height="2.0" rx="3" fill="url(#g)" opacity="0.9"/><rect x="200.3" y="124.0" width="6.9" height="2.0" rx="3" fill="url(#g)" opacity="0.9"/><rect x="212.8" y="124.0" width="6.9" height="2.0" rx="3" fill="url(#g)" opacity="0.9"/><rect x="225.3" y="124.0" width="6.9" height="2.0" rx="3" fill="url(#g)" opacity="0.9"/><rect x="237.8" y="124.0" width="6.9" height="2.0" rx="3" fill="url(#g)" opacity="0.9"/><rect x="250.3" y="124.0" width="6.9" height="2.0" rx="3" fill="url(#g)" opacity="0.9"/><rect x="262.8" y="124.0" width="6.9" height="2.0" rx="3" fill="url(#g)" opacity="0.9"/><rect x="275.3" y="124.0" width="6.9" height="2.0" rx="3" fill="url(#g)" opacity="0.9"/><rect x="287.8" y="124.0" width="6.9" height="2.0" rx="3" fill="url(#g)" opacity="0.9"/><rect x="300.3" y="124.0" width="6.9" height="2.0" rx="3" fill="url(#g)" opacity="0.9"/><rect x="312.8" y="124.0" width="6.9" height="2.0" rx="3" fill="url(#g)" opacity="0.9"/><rect x="325.3" y="124.0" width="6.9" height="2.0" rx="3" fill="url(#g)" opacity="0.9"/><rect x="337.8" y="124.0" width="6.9" height="2.0" rx="3" fill="url(#g)" opacity="0.9"/><rect x="350.3" y="124.0" width="6.9" height="2.0" rx="3" fill="url(#g)" opacity="0.9"/><rect x="362.8" y="124.0" width="6.9" height="2.0" rx="3" fill="url(#g)" opacity="0.9"/><rect x="375.3" y="124.0" width="6.9" height="2.0" rx="3" fill="url(#g)" opacity="0.9"/><rect x="387.8" y="124.0" width="6.9" height="2.0" rx="3" fill="url(#g)" opacity="0.9"/><rect x="400.3" y="124.0" width="6.9" height="2.0" rx="3" fill="url(#g)" opacity="0.9"/><rect x="412.8" y="124.0" width="6.9" height="2.0" rx="3" fill="url(#g)" opacity="0.9"/><rect x="425.3" y="124.0" width="6.9" height="2.0" rx="3" fill="url(#g)" opacity="0.9"/><rect x="437.8" y="124.0" width="6.9" height="2.0" rx="3" fill="url(#g)" opacity="0.9"/><rect x="450.3" y="124.0" width="6.9" height="2.0" rx="3" fill="url(#g)" opacity="0.9"/><rect x="462.8" y="124.0" width="6.9" height="2.0" rx="3" fill="url(#g)" opacity="0.9"/><rect x="475.3" y="124.0" width="6.9" height="2.0" rx="3" fill="url(#g)" opacity="0.9"/><rect x="487.8" y="124.0" width="6.9" height="2.0" rx="3" fill="url(#g)" opacity="0.9"/><rect x="500.3" y="124.0" width="6.9" height="2.0" rx="3" fill="url(#g)" opacity="0.9"/><rect x="512.8" y="124.0" width="6.9" height="2.0" rx="3" fill="url(#g)" opacity="0.9"/><rect x="525.3" y="124.0" width="6.9" height="2.0" rx="3" fill="url(#g)" opacity="0.9"/><rect x="537.8" y="124.0" width="6.9" height="2.0" rx="3" fill="url(#g)" opacity="0.9"/><rect x="550.3" y="124.0" width="6.9" height="2.0" rx="3" fill="url(#g)" opacity="0.9"/><rect x="562.8" y="124.0" width="6.9" height="2.0" rx="3" fill="url(#g)" opacity="0.9"/><rect x="575.3" y="124.0" width="6.9" height="2.0" rx="3" fill="url(#g)" opacity="0.9"/><rect x="587.8" y="124.0" width="6.9" height="2.0" rx="3" fill="url(#g)" opacity="0.9"/><rect x="600.3" y="124.0" width="6.9" height="2.0" rx="3" fill="url(#g)" opacity="0.9"/><rect x="612.8" y="124.0" width="6.9" height="2.0" rx="3" fill="url(#g)" opacity="0.9"/><rect x="625.3" y="124.0" width="6.9" height="2.0" rx="3" fill="url(#g)" opacity="0.9"/><rect x="637.8" y="124.0" width="6.9" height="2.0" rx="3" fill="url(#g)" opacity="0.9"/><rect x="650.3" y="124.0" width="6.9" height="2.0" rx="3" fill="url(#g)" opacity="0.9"/><rect x="662.8" y="124.0" width="6.9" height="2.0" rx="3" fill="url(#g)" opacity="0.9"/><rect x="675.3" y="124.0" width="6.9" height="2.0" rx="3" fill="url(#g)" opacity="0.9"/><rect x="687.8" y="124.0" width="6.9" height="2.0" rx="3" fill="url(#g)" opacity="0.9"/><rect x="700.3" y="124.0" width="6.9" height="2.0" rx="3" fill="url(#g)" opacity="0.9"/>
  <polyline points="28.8,84.3 41.3,68.2 53.8,67.9 66.3,67.8 78.8,67.7 91.3,67.5 103.8,67.1 116.3,66.4 128.8,66.2 141.3,65.6 153.8,64.8 166.3,64.3 178.8,63.6 191.3,62.8 203.8,61.0 216.3,59.9 228.8,59.2 241.3,57.8 253.8,56.8 266.3,55.6 278.8,55.0 291.3,54.1 303.8,53.3 316.3,52.3 328.8,51.4 341.3,50.5 353.8,50.3 366.3,49.6 378.8,49.5 391.3,48.7 403.8,48.3 416.3,48.0 428.8,47.2 441.3,46.9 453.8,46.7 466.3,46.0 478.8,45.2 491.3,44.8 503.8,44.6 516.3,44.3 528.8,43.3 541.3,43.1 553.8,42.9 566.3,42.3 578.8,41.8 591.3,41.5 603.8,41.2 616.3,41.0 628.8,40.6 641.3,40.6 653.8,40.4 666.3,40.1 678.8,39.9 691.3,39.6 703.8,39.6" fill="none" stroke="#4ad6f0" stroke-width="2.5" stroke-linecap="round" stroke-linejoin="round"/>
</svg>
